# xmcd
#
# Track frame offsets: 
#        150
#        18472
#        33662
#        49984
#        65288
#        77894
#        88606
#        104843
#        118723
#        138385
#        155447
#        170483
#        189515
#        205779
#        221748
#        240145
#        263697
#        281706
#        300707
#        323037
#
# Disc length: 4556 seconds
#
# Revision: 1
# Processed by: cddbd v1.5.2PL0 Copyright (c) Steve Scherf et al.
# Submitted via: ExactAudioCopy v1.0b2
#
DISCID=1f11ca14
DTITLE=Various Artist - Fabric 58 - Craig Richards
DYEAR=2011
DGENRE=Electronic
TTITLE0=Two Lone Swordsmen - Rico's Helly
TTITLE1=Carl Finlow - Reprise
TTITLE2=Melchior Productions - Come Closer (Dub)
TTITLE3=Gemini - The Sound
TTITLE4=Housey Doingz - Flying Saucers
TTITLE5=San Proper and Awanto 3 - Black Burger
TTITLE6=Arne Weinberg - My Testimony
TTITLE7=G-Man - El Jem
TTITLE8=Conscious Minds - Expressions
TTITLE9=Eco Tourist - Magelonic
TTITLE10=L.I.E.S. - Comeback Dust
TTITLE11=Joel Mull - Leaving Ground
TTITLE12=Marcel Janovsky - Vamos A Otro Piso
TTITLE13=Loop Hotel - Room 201
TTITLE14=Conforce - Rare Education
TTITLE15=Johnny Fiasco - Kalimba
TTITLE16=Convextion - Premiata
TTITLE17=Maurice Fulton - Space
TTITLE18=Semtek - Lotos Eaters (Neville Watson Remix)
TTITLE19=Stinkworkx - Los Gatos Lloros
EXTD=
EXTT0=
EXTT1=
EXTT2=
EXTT3=
EXTT4=
EXTT5=
EXTT6=
EXTT7=
EXTT8=
EXTT9=
EXTT10=
EXTT11=
EXTT12=
EXTT13=
EXTT14=
EXTT15=
EXTT16=
EXTT17=
EXTT18=
EXTT19=
PLAYORDER=
